<svg width="21" height="20" viewBox="0 0 21 20" fill="none" xmlns="http://www.w3.org/2000/svg">
<g id="google-icon 1" clip-path="url(#clip0_16_564)">
<path id="Vector" d="M20.4895 10.1871C20.4895 9.3677 20.4215 8.76977 20.2742 8.14969H10.6993V11.848H16.3196C16.2063 12.7671 15.5944 14.1512 14.2346 15.0813L14.2156 15.2051L17.243 17.4969L17.4527 17.5174C19.379 15.7789 20.4895 13.2211 20.4895 10.1871Z" fill="#4285F4"/>
<path id="Vector_2" d="M10.6991 19.9313C13.4526 19.9313 15.7642 19.0454 17.4526 17.5174L14.2345 15.0813C13.3733 15.6682 12.2175 16.0779 10.6991 16.0779C8.0023 16.0779 5.7134 14.3395 4.89747 11.9366L4.77787 11.9466L1.62991 14.3273L1.58875 14.4391C3.26576 17.6945 6.71048 19.9313 10.6991 19.9313Z" fill="#34A853"/>
<path id="Vector_3" d="M4.8976 11.9367C4.68231 11.3166 4.55771 10.6522 4.55771 9.96568C4.55771 9.27912 4.68231 8.61476 4.88627 7.99469L4.88057 7.86263L1.69316 5.4437L1.58888 5.49217C0.897698 6.84308 0.501099 8.36011 0.501099 9.96568C0.501099 11.5713 0.897698 13.0882 1.58888 14.4391L4.8976 11.9367Z" fill="#FBBC05"/>
<path id="Vector_4" d="M10.6991 3.85339C12.6141 3.85339 13.9058 4.66171 14.6424 5.33721L17.5205 2.5911C15.7529 0.985527 13.4526 3.05176e-05 10.6991 3.05176e-05C6.71048 3.05176e-05 3.26576 2.23675 1.58875 5.49217L4.88614 7.99469C5.7134 5.59186 8.0023 3.85339 10.6991 3.85339Z" fill="#EB4335"/>
</g>
<defs>
<clipPath id="clip0_16_564">
<rect width="20" height="20" fill="white" transform="translate(0.5)"/>
</clipPath>
</defs>
</svg>
