<svg width="278" height="108" viewBox="0 0 278 108" fill="none" xmlns="http://www.w3.org/2000/svg">
<g clip-path="url(#clip0_16_590)">
<path d="M0.736816 24.9921H7.38607V32.4722C8.18775 30.1199 9.62606 28.2616 11.701 26.8974C13.8231 25.5332 16.2282 24.7099 18.9161 24.4276C21.6042 24.1454 24.3864 24.451 27.2631 25.3449C30.1868 26.1918 32.8513 27.6502 35.2564 29.7202C37.7085 31.79 39.7127 34.495 41.2689 37.8353C42.8252 41.1284 43.6032 45.1037 43.6032 49.761C43.6032 54.3244 42.8488 58.2289 41.3397 61.475C39.8778 64.7212 37.8264 67.3792 35.1856 69.449C32.5448 71.4721 29.4323 72.9538 25.8484 73.8949C22.2644 74.8357 18.3738 75.3061 14.1768 75.3061C12.1018 75.3061 9.97975 75.1885 7.81049 74.9533C5.64124 74.718 3.49555 74.5769 1.37345 74.5299H0.736816V73.8949C0.831132 73.8949 0.972606 73.8243 1.16124 73.683C1.34987 73.5419 1.51492 73.2832 1.65639 72.9068C1.84502 72.5304 2.01007 71.9896 2.15154 71.2838C2.29303 70.5312 2.36376 69.5902 2.36376 68.4612V31.0608C2.36376 29.8847 2.29303 28.9438 2.15154 28.2382C2.01007 27.5324 1.84502 26.9915 1.65639 26.6152C1.51492 26.2388 1.34987 25.9801 1.16124 25.8388C0.972606 25.6977 0.831132 25.6271 0.736816 25.6271V24.9921ZM38.6518 49.761C38.6518 44.9154 37.8735 40.8226 36.3175 37.4825C34.8083 34.1422 32.8749 31.5313 30.517 29.6494C28.2062 27.7207 25.7069 26.474 23.0189 25.9096C20.3308 25.3449 17.8079 25.3921 15.4501 26.0507C13.1393 26.6621 11.2059 27.8618 9.64964 29.6494C8.1406 31.3902 7.38607 33.6483 7.38607 36.4239V74.2477C8.56502 74.3418 9.72038 74.4357 10.8522 74.5299C11.984 74.624 13.0922 74.671 14.1768 74.671C18.0437 74.671 21.4863 74.1065 24.5044 72.9774C27.5225 71.8013 30.069 70.1548 32.1438 68.0378C34.266 65.8737 35.8694 63.2628 36.954 60.2048C38.0858 57.1 38.6518 53.6186 38.6518 49.761Z" fill="black"/>
<path d="M72.9602 47.2912C73.3373 49.0788 73.809 49.9021 74.3749 49.761L74.5871 50.3255L70.7673 51.8074L70.5552 51.878L66.8767 53.2894V52.6541C67.3955 52.3249 67.7492 51.8074 67.9378 51.1018C68.1264 50.3491 68.2209 49.6435 68.2209 48.9848C68.1264 48.1849 67.9849 47.4088 67.7963 46.656C67.6549 45.8563 67.4192 45.1271 67.089 44.4685C66.7588 43.8098 66.3108 43.2689 65.745 42.8454C65.2262 42.3751 64.5897 42.0928 63.8351 41.9987C61.8545 41.7164 60.2511 41.8106 59.025 42.2809C57.7989 42.7514 56.8321 43.457 56.1248 44.3979C55.4173 45.3388 54.8987 46.4443 54.5685 47.7146C54.2857 48.9377 54.1207 50.2079 54.0734 51.5252V68.4612C54.0734 69.6373 54.1207 70.5782 54.2149 71.2838C54.3564 71.9896 54.5214 72.554 54.7101 72.9774C54.8987 73.3538 55.0873 73.6124 55.276 73.7537C55.4646 73.8477 55.606 73.8949 55.7004 73.8949V74.5299H47.4949V73.8949C47.6364 73.8949 47.8014 73.8477 47.99 73.7537C48.1787 73.6124 48.3437 73.3538 48.4852 72.9774C48.6738 72.554 48.8388 71.9896 48.9804 71.2838C49.1219 70.5782 49.1927 69.6373 49.1927 68.4612V46.5854C49.1927 45.4093 49.1219 44.4685 48.9804 43.7629C48.8388 43.0571 48.6738 42.5162 48.4852 42.1398C48.3437 41.7634 48.1787 41.5048 47.99 41.3636C47.8014 41.2225 47.6364 41.1518 47.4949 41.1518V40.5167H54.0734V47.2207C54.3091 46.2326 54.6629 45.3154 55.1345 44.4685C55.606 43.5746 56.219 42.822 56.9736 42.2104C57.7753 41.5987 58.742 41.1284 59.8738 40.799C61.0057 40.4226 62.3731 40.2345 63.9765 40.2345C66.6646 40.2345 68.7158 40.8931 70.1306 42.2104C71.5926 43.5276 72.5356 45.2212 72.9602 47.2912Z" fill="black"/>
<path d="M81.6336 68.3906C82.5297 68.3906 83.2841 68.6964 83.8971 69.3079C84.5102 69.9195 84.8167 70.6487 84.8167 71.4954C84.8167 72.3423 84.5102 73.0715 83.8971 73.683C83.2841 74.2476 82.5297 74.5299 81.6336 74.5299C80.7848 74.5299 80.0302 74.2476 79.3701 73.683C78.757 73.0715 78.4505 72.3423 78.4505 71.4954C78.4505 70.6487 78.757 69.9195 79.3701 69.3079C80.0302 68.6964 80.7848 68.3906 81.6336 68.3906Z" fill="black"/>
<path d="M106.466 31.0608C106.466 29.8847 106.395 28.9438 106.253 28.2382C106.112 27.5324 105.947 26.9915 105.758 26.6152C105.617 26.2388 105.452 25.9801 105.263 25.8388C105.074 25.6977 104.933 25.6271 104.839 25.6271V24.9921H113.115V25.6271C113.021 25.6271 112.879 25.6977 112.69 25.8388C112.502 25.9801 112.313 26.2388 112.124 26.6152C111.936 26.9915 111.771 27.5324 111.629 28.2382C111.535 28.9438 111.488 29.8847 111.488 31.0608V55.9003C111.441 59.3345 111.865 62.3689 112.761 65.0034C113.138 66.1325 113.634 67.2615 114.247 68.3906C114.907 69.4726 115.708 70.4371 116.652 71.2838C117.642 72.1307 118.797 72.8127 120.118 73.3302C121.485 73.8477 123.065 74.1065 124.857 74.1065C126.602 74.1065 128.465 73.8713 130.445 73.4008C132.426 72.9304 134.265 72.0365 135.963 70.7193C137.66 69.4021 139.052 67.5673 140.136 65.2151C141.268 62.8159 141.834 59.7109 141.834 55.9003V36.4945C141.834 34.848 141.74 33.3661 141.551 32.0488C141.362 30.6844 141.127 29.5319 140.844 28.591C140.608 27.6502 140.325 26.921 139.995 26.4035C139.712 25.886 139.429 25.6271 139.146 25.6271V24.9921H145.159V25.6271C144.876 25.6271 144.569 25.886 144.239 26.4035C143.956 26.921 143.673 27.6502 143.39 28.591C143.154 29.5319 142.942 30.6844 142.754 32.0488C142.565 33.3661 142.471 34.848 142.471 36.4945V55.9003C142.471 58.8641 142.141 61.4045 141.48 63.5215C140.82 65.5915 139.971 67.3321 138.934 68.7434C137.896 70.1548 136.717 71.2838 135.397 72.1307C134.124 72.9304 132.85 73.5419 131.577 73.9654C130.304 74.3888 129.101 74.6474 127.97 74.7416C126.885 74.8827 126.013 74.9533 125.352 74.9533C124.692 74.9533 123.749 74.8827 122.523 74.7416C121.344 74.6005 120.047 74.2946 118.632 73.8243C117.217 73.3538 115.779 72.6952 114.317 71.8484C112.903 71.0015 111.606 69.8726 110.427 68.4612C109.295 67.0498 108.352 65.3326 107.597 63.3098C106.843 61.2398 106.466 58.77 106.466 55.9003V31.0608Z" fill="black"/>
<path d="M199.265 53.6422V68.4612C199.265 69.6373 199.312 70.5782 199.405 71.2838C199.546 71.9896 199.712 72.554 199.9 72.9774C200.09 73.3538 200.277 73.6124 200.467 73.7537C200.655 73.8477 200.797 73.8949 200.891 73.8949V74.5299H192.685V73.8949C192.78 73.8949 192.921 73.8477 193.109 73.7537C193.298 73.6124 193.463 73.3538 193.605 72.9774C193.793 72.554 193.959 71.9896 194.1 71.2838C194.241 70.5782 194.313 69.6373 194.313 68.4612V53.6422C194.313 52.7954 194.264 51.7838 194.17 50.6077C194.076 49.3846 193.863 48.2085 193.535 47.0795C193.252 45.9034 192.804 44.8448 192.19 43.904C191.625 42.9631 190.847 42.3279 189.856 41.9987C188.865 41.6693 187.899 41.6929 186.955 42.0692C186.013 42.3985 185.141 42.916 184.339 43.6217C183.585 44.3273 182.901 45.1271 182.287 46.021C181.675 46.9148 181.178 47.7616 180.801 48.5613C179.764 50.8196 178.939 53.5952 178.326 56.8883C177.713 60.1342 177.406 63.992 177.406 68.4612C177.406 69.6373 177.453 70.5782 177.548 71.2838C177.689 71.9896 177.854 72.554 178.043 72.9774C178.231 73.3538 178.42 73.6124 178.609 73.7537C178.797 73.8477 178.939 73.8949 179.033 73.8949V74.5299H170.828V73.8949C170.922 73.8949 171.064 73.8477 171.252 73.7537C171.441 73.6124 171.606 73.3538 171.747 72.9774C171.936 72.554 172.101 71.9896 172.242 71.2838C172.384 70.5782 172.455 69.6373 172.455 68.4612V53.6422C172.455 52.7954 172.407 51.7838 172.313 50.6077C172.219 49.3846 172.007 48.2085 171.677 47.0795C171.394 45.9034 170.946 44.8448 170.333 43.904C169.767 42.9631 168.989 42.3279 167.998 41.9987C167.008 41.6693 166.041 41.6929 165.098 42.0692C164.155 42.3985 163.282 42.916 162.481 43.6217C161.726 44.3273 161.042 45.1271 160.429 46.021C159.816 46.9148 159.321 47.7616 158.944 48.5613C157.906 50.8196 157.081 53.5952 156.468 56.8883C155.855 60.1342 155.549 63.992 155.549 68.4612C155.549 69.6373 155.596 70.5782 155.69 71.2838C155.831 71.9896 155.996 72.554 156.185 72.9774C156.374 73.3538 156.562 73.6124 156.751 73.7537C156.94 73.8477 157.081 73.8949 157.175 73.8949V74.5299H149.041V73.8949C149.135 73.8949 149.277 73.8477 149.465 73.7537C149.654 73.6124 149.819 73.3538 149.96 72.9774C150.149 72.554 150.314 71.9896 150.455 71.2838C150.597 70.5782 150.668 69.6373 150.668 68.4612V46.5854C150.668 45.4565 150.597 44.539 150.455 43.8334C150.314 43.0807 150.149 42.5162 149.96 42.1398C149.819 41.7634 149.654 41.5048 149.465 41.3636C149.277 41.2225 149.135 41.1518 149.041 41.1518V40.5167H155.549V58.7936C155.879 56.6294 156.28 54.6772 156.751 52.9366C157.223 51.1958 157.765 49.6435 158.378 48.2791C158.85 47.2912 159.392 46.3268 160.005 45.3859C160.618 44.4451 161.325 43.5982 162.127 42.8454C162.976 42.0457 163.872 41.4106 164.815 40.9401C165.805 40.4698 166.89 40.2345 168.069 40.2345C170.002 40.2345 171.582 40.6345 172.808 41.4342C174.035 42.2339 174.978 43.2689 175.638 44.539C176.345 45.8093 176.817 47.2441 177.053 48.8435C177.288 50.4432 177.406 52.0427 177.406 53.6422V58.7936C177.689 56.6294 178.066 54.6772 178.538 52.9366C179.01 51.1958 179.576 49.6435 180.236 48.2791C180.66 47.2912 181.178 46.3268 181.792 45.3859C182.453 44.4451 183.182 43.5982 183.985 42.8454C184.787 42.0457 185.682 41.4106 186.673 40.9401C187.663 40.4698 188.748 40.2345 189.926 40.2345C191.86 40.2345 193.416 40.6345 194.595 41.4342C195.822 42.2339 196.764 43.2689 197.425 44.539C198.133 45.8093 198.604 47.2441 198.839 48.8435C199.122 50.4432 199.265 52.0427 199.265 53.6422Z" fill="black"/>
<path d="M204.043 62.0395C203.429 59.7344 203.288 57.4528 203.619 55.1947C203.947 52.9366 204.655 50.8666 205.74 48.9848C206.872 47.056 208.334 45.3859 210.126 43.9745C211.917 42.5632 213.97 41.5517 216.28 40.9401C218.732 40.2815 221.089 40.1404 223.353 40.5167C225.617 40.8461 227.669 41.5282 229.507 42.5632C231.347 43.5982 232.926 44.9154 234.247 46.5149C235.567 48.1144 236.511 49.8551 237.076 51.7369C235.379 51.7369 233.54 51.8074 231.56 51.9485C229.626 52.0897 227.857 52.3485 226.254 52.7249C227.574 52.6777 228.776 52.913 229.861 53.4305C230.993 53.9008 231.96 54.5594 232.762 55.4063C233.563 56.2531 234.201 57.2411 234.672 58.37C235.143 59.4992 235.426 60.6753 235.52 61.8984C235.71 64.4389 235.166 66.6499 233.894 68.5318C232.668 70.3665 231.016 71.8249 228.942 72.9068C226.915 73.9418 224.628 74.5299 222.08 74.671C219.533 74.8591 217.058 74.5299 214.652 73.683C212.295 72.8363 210.15 71.4721 208.217 69.5902C206.283 67.6615 204.891 65.1445 204.043 62.0395ZM208.217 56.9588C208.357 58.3231 208.57 59.5933 208.852 60.7694C209.749 64.1567 211.116 66.8146 212.955 68.7434C214.795 70.6723 216.775 71.9896 218.898 72.6952C221.066 73.4008 223.236 73.5655 225.406 73.1891C227.574 72.7657 229.46 71.9424 231.063 70.7193C232.668 69.4962 233.823 67.9437 234.529 66.0618C235.284 64.1331 235.309 61.9925 234.601 59.6403C234.224 58.37 233.61 57.2175 232.762 56.1825C231.913 55.1475 230.875 54.3949 229.65 53.9244C228.422 53.4069 227.032 53.2188 225.476 53.3599C223.92 53.4541 222.268 54.0185 220.524 55.0535C218.826 56.0414 217.152 56.7472 215.502 57.1705C213.898 57.5469 212.414 57.688 211.045 57.5939C210.527 57.5469 210.031 57.4997 209.56 57.4528C209.088 57.3586 208.641 57.1941 208.217 56.9588ZM231.63 51.3841C230.969 49.8785 230.121 48.4438 229.083 47.0795C228.045 45.6682 226.866 44.4685 225.546 43.4806C224.274 42.4926 222.859 41.787 221.302 41.3636C219.746 40.9401 218.12 40.9637 216.421 41.4342C214.818 41.8576 213.473 42.5867 212.39 43.6217C211.305 44.6567 210.432 45.8563 209.773 47.2207C209.159 48.5849 208.711 50.0668 208.428 51.6663C208.193 53.2658 208.121 54.8419 208.217 56.3942C209.018 56.7706 209.96 57.0058 211.045 57.1C212.365 57.1941 213.804 57.0528 215.36 56.6766C216.965 56.2531 218.591 55.571 220.241 54.6302C222.221 53.501 224.202 52.7013 226.184 52.2308C228.164 51.7604 229.98 51.4782 231.63 51.3841Z" fill="black"/>
<path d="M269.359 55.4769C269.028 57.8291 268.557 59.9931 267.943 61.969C267.331 63.8978 266.624 65.615 265.822 67.1204C264.313 69.849 262.591 71.8484 260.658 73.1185L259.809 73.6124C258.583 74.3182 257.285 74.7652 255.919 74.9533C254.551 75.1415 253.184 75.118 251.816 74.8827C249.364 74.4593 247.335 73.6596 245.732 72.4835C244.176 71.3074 242.974 69.896 242.125 68.2495C241.324 66.6029 240.851 64.7917 240.71 62.8159C240.569 60.84 240.734 58.8641 241.205 56.8883C241.676 54.8653 242.407 52.913 243.398 51.0313C244.389 49.1494 245.591 47.4793 247.005 46.021C248.75 44.2332 250.801 42.7984 253.161 41.7164C255.518 40.5873 258.11 40.0464 260.941 40.0934C262.167 40.0464 263.463 40.1639 264.831 40.4462C266.246 40.6814 267.756 41.1284 269.359 41.787V29.5789C269.169 28.3558 268.911 27.556 268.58 27.1796C268.297 26.8033 268.062 26.6152 267.873 26.6152L267.66 25.9801L274.31 23.5102V68.3906C274.31 69.5668 274.357 70.5076 274.451 71.2132C274.594 71.919 274.758 72.4835 274.947 72.9068C275.135 73.2832 275.325 73.5419 275.512 73.683C275.702 73.7771 275.843 73.8243 275.937 73.8243V74.4593H269.359V55.4769ZM269.359 42.3515C266.387 41.1754 263.558 40.5873 260.871 40.5873C258.37 40.6814 256.2 41.3401 254.363 42.5632C252.57 43.7864 251.061 45.4565 249.835 47.5735C248.987 49.126 248.303 51.0077 247.783 53.2188C247.312 55.3828 247.077 57.5939 247.077 59.852C247.077 62.1101 247.382 64.2742 247.996 66.3442C248.61 68.414 249.575 70.1077 250.897 71.4249C252.123 72.6482 253.466 73.4479 254.928 73.8243C256.39 74.1535 257.923 73.9183 259.526 73.1185C260.47 72.601 261.295 71.9896 262.002 71.2838C262.757 70.5312 263.439 69.6843 264.053 68.7434C265.279 67.0028 266.246 65.0504 266.954 62.8864C267.709 60.7223 268.274 58.5347 268.651 56.3236C268.84 55.3828 268.981 54.3713 269.075 53.2894C269.218 51.831 269.288 50.2785 269.288 48.6319H269.359V42.3515Z" fill="black"/>
<path d="M14.5122 90.3838C14.8129 90.5429 14.9809 90.7816 15.0163 91.1C15.0694 91.4184 14.9898 91.7102 14.7775 91.9755C14.6183 92.2054 14.4149 92.3292 14.1673 92.347C13.9197 92.3647 13.6721 92.3116 13.4245 92.1877C12.8408 91.834 12.2129 91.5599 11.5408 91.3653C10.8687 91.1531 10.1612 91.0469 9.41835 91.0469C8.37482 91.0469 7.41971 91.2326 6.55306 91.6042C5.68638 91.9579 4.93468 92.4619 4.29795 93.1163C3.66122 93.7708 3.16599 94.549 2.81224 95.4509C2.45849 96.3531 2.28162 97.3525 2.28162 98.449C2.28162 99.6163 2.46734 100.66 2.83878 101.58C3.2102 102.499 3.71428 103.286 4.35101 103.941C5.00543 104.577 5.75713 105.064 6.60611 105.4C7.47278 105.736 8.41019 105.904 9.41835 105.904C10.1435 105.904 10.8422 105.807 11.5143 105.612C12.1864 105.418 12.8231 105.135 13.4245 104.763C13.6721 104.639 13.9197 104.595 14.1673 104.631C14.4149 104.666 14.6272 104.79 14.8041 105.002C15.0163 105.285 15.0959 105.586 15.0428 105.904C14.9898 106.205 14.8217 106.426 14.5387 106.567C14.0966 106.833 13.5925 107.08 13.0265 107.31C12.4605 107.522 11.868 107.69 11.249 107.814C10.6476 107.938 10.0374 108 9.41835 108C8.14489 108 6.94217 107.779 5.8102 107.337C4.67822 106.895 3.67891 106.258 2.81224 105.427C1.94557 104.595 1.25578 103.596 0.742856 102.429C0.247619 101.244 0 99.9169 0 98.449C0 97.0693 0.238775 95.8048 0.716325 94.6552C1.19388 93.5055 1.85715 92.5061 2.70611 91.6571C3.57279 90.8082 4.57211 90.1449 5.70407 89.6674C6.85373 89.1898 8.09182 88.951 9.41835 88.951C10.3381 88.951 11.2313 89.0748 12.0979 89.3225C12.9823 89.5702 13.787 89.9239 14.5122 90.3838Z" fill="black"/>
<path d="M51.6957 98.449C51.6957 99.8109 51.4746 101.076 51.0323 102.243C50.5902 103.393 49.9712 104.401 49.1753 105.267C48.3794 106.134 47.4331 106.806 46.3365 107.284C45.2398 107.761 44.046 108 42.7548 108C41.446 108 40.2432 107.761 39.1468 107.284C38.0678 106.806 37.1303 106.134 36.3344 105.267C35.5385 104.401 34.9195 103.393 34.4773 102.243C34.0352 101.076 33.814 99.8109 33.814 98.449C33.814 97.0693 34.0352 95.8048 34.4773 94.6552C34.9195 93.4877 35.5385 92.4795 36.3344 91.6306C37.1303 90.7639 38.0678 90.0918 39.1468 89.6143C40.2432 89.1367 41.446 88.898 42.7548 88.898C44.046 88.898 45.2398 89.1367 46.3365 89.6143C47.4331 90.0918 48.3794 90.7639 49.1753 91.6306C49.9712 92.4795 50.5902 93.4877 51.0323 94.6552C51.4746 95.8048 51.6957 97.0693 51.6957 98.449ZM49.414 98.449C49.414 96.9986 49.1223 95.7163 48.5385 94.6021C47.9725 93.4877 47.1943 92.6122 46.2038 91.9755C45.2133 91.3388 44.0637 91.0204 42.7548 91.0204C41.446 91.0204 40.2875 91.3388 39.2794 91.9755C38.2889 92.6122 37.5107 93.4877 36.9446 94.6021C36.3787 95.7163 36.0956 96.9986 36.0956 98.449C36.0956 99.8816 36.3787 101.164 36.9446 102.296C37.5107 103.41 38.2889 104.286 39.2794 104.923C40.2875 105.559 41.446 105.878 42.7548 105.878C44.0637 105.878 45.2133 105.559 46.2038 104.923C47.1943 104.286 47.9725 103.41 48.5385 102.296C49.1223 101.164 49.414 99.8816 49.414 98.449Z" fill="black"/>
<path d="M77.3419 108C76.0332 108 74.8834 107.805 73.8929 107.416C72.9026 107.027 71.9475 106.408 71.0277 105.559C70.9039 105.435 70.7977 105.303 70.7093 105.161C70.6385 105.002 70.6031 104.834 70.6031 104.657C70.6031 104.374 70.7005 104.127 70.8951 103.914C71.1073 103.684 71.3639 103.569 71.6644 103.569C71.9121 103.569 72.1332 103.667 72.3277 103.861C73.0176 104.533 73.7604 105.046 74.5563 105.4C75.3699 105.754 76.2809 105.931 77.2889 105.931C78.0671 105.931 78.7659 105.807 79.3849 105.559C80.0216 105.312 80.5256 104.967 80.8971 104.525C81.2686 104.082 81.4542 103.569 81.4542 102.986C81.4365 102.278 81.2244 101.695 80.8175 101.235C80.4285 100.775 79.88 100.395 79.1726 100.094C78.4828 99.7754 77.6781 99.5101 76.7583 99.2979C75.9447 99.1033 75.193 98.8646 74.5033 98.5817C73.8312 98.2987 73.2474 97.9537 72.7522 97.5469C72.2569 97.1224 71.8679 96.6184 71.5848 96.0347C71.3196 95.4333 71.187 94.7347 71.187 93.9388C71.187 92.9306 71.4521 92.0462 71.9829 91.2857C72.5134 90.5252 73.2474 89.9415 74.1848 89.5347C75.1223 89.1103 76.2012 88.898 77.4216 88.898C78.5005 88.898 79.5176 89.0748 80.4727 89.4285C81.4453 89.7824 82.2236 90.2687 82.8074 90.8878C83.161 91.2238 83.3379 91.5511 83.3379 91.8695C83.3379 92.1346 83.2229 92.3823 82.9929 92.6122C82.7808 92.8246 82.5331 92.9306 82.2501 92.9306C82.0557 92.9306 81.8788 92.8598 81.7195 92.7184C81.4188 92.3823 81.0386 92.0817 80.5787 91.8164C80.1189 91.5511 79.6149 91.3388 79.0664 91.1795C78.5182 91.0204 77.97 90.9409 77.4216 90.9409C76.6079 90.9409 75.8916 91.0647 75.2726 91.3122C74.6536 91.5422 74.1671 91.8783 73.8135 92.3204C73.4774 92.7448 73.3093 93.2578 73.3093 93.8592C73.3093 94.5313 73.5039 95.0884 73.8929 95.5307C74.2821 95.9551 74.8038 96.3088 75.4584 96.5918C76.1128 96.8571 76.8379 97.096 77.6338 97.3082C78.5005 97.5204 79.2964 97.7681 80.0216 98.051C80.7644 98.3164 81.4011 98.6524 81.9318 99.0592C82.4624 99.466 82.8693 99.9878 83.1521 100.625C83.4529 101.244 83.6033 102.013 83.6033 102.933C83.6033 103.905 83.3291 104.772 82.7808 105.533C82.2324 106.293 81.4807 106.895 80.5256 107.337C79.5883 107.761 78.5271 107.982 77.3419 108Z" fill="black"/>
<path d="M104.966 89.1367C105.125 89.1367 105.293 89.181 105.47 89.2694C105.665 89.3578 105.815 89.4728 105.921 89.6143L112.952 100.253L112.023 100.227L119.133 89.6143C119.363 89.2782 119.664 89.1191 120.036 89.1367C120.319 89.1544 120.566 89.2606 120.778 89.4551C120.991 89.6497 121.097 89.906 121.097 90.2245V106.647C121.097 106.948 120.991 107.204 120.778 107.416C120.566 107.629 120.301 107.735 119.982 107.735C119.664 107.735 119.399 107.629 119.187 107.416C118.974 107.204 118.868 106.948 118.868 106.647V92.2408L119.531 92.3735L113.27 101.898C113.164 102.022 113.031 102.128 112.872 102.216C112.731 102.305 112.58 102.349 112.421 102.349C112.262 102.349 112.103 102.305 111.944 102.216C111.785 102.128 111.652 102.022 111.546 101.898L105.364 92.3735L105.921 91.6837V106.647C105.921 106.948 105.824 107.204 105.629 107.416C105.435 107.629 105.187 107.735 104.886 107.735C104.586 107.735 104.338 107.629 104.144 107.416C103.967 107.204 103.878 106.948 103.878 106.647V90.2245C103.878 89.9415 103.976 89.6938 104.17 89.4816C104.382 89.2517 104.648 89.1367 104.966 89.1367Z" fill="black"/>
<path d="M143.521 89.1632H152.966C153.266 89.1632 153.523 89.2606 153.735 89.4551C153.947 89.6497 154.054 89.8972 154.054 90.198C154.054 90.4986 153.947 90.7463 153.735 90.9409C153.523 91.1176 153.266 91.2062 152.966 91.2062H144.423L144.662 90.7551V97.4673L144.396 97.1755H151.772C152.073 97.1755 152.329 97.2727 152.541 97.4673C152.753 97.6619 152.86 97.9096 152.86 98.2102C152.86 98.5109 152.753 98.7584 152.541 98.953C152.329 99.13 152.073 99.2183 151.772 99.2183H144.476L144.662 98.9797V105.851L144.502 105.665H152.966C153.266 105.665 153.523 105.771 153.735 105.984C153.947 106.196 154.054 106.435 154.054 106.7C154.054 107.001 153.947 107.248 153.735 107.443C153.523 107.637 153.266 107.735 152.966 107.735H143.521C143.22 107.735 142.964 107.629 142.752 107.416C142.557 107.204 142.46 106.948 142.46 106.647V90.2245C142.46 89.9239 142.557 89.6762 142.752 89.4816C142.964 89.2694 143.22 89.1632 143.521 89.1632Z" fill="black"/>
<path d="M180.062 107.735C179.743 107.735 179.478 107.629 179.266 107.416C179.053 107.204 178.948 106.948 178.948 106.647V90.2511H181.202V106.647C181.202 106.948 181.097 107.204 180.884 107.416C180.671 107.629 180.398 107.735 180.062 107.735ZM173.907 91.1795C173.606 91.1795 173.349 91.0912 173.137 90.9142C172.943 90.7196 172.845 90.4721 172.845 90.1714C172.845 89.8708 172.943 89.6319 173.137 89.4551C173.349 89.2606 173.606 89.1632 173.907 89.1632H186.244C186.543 89.1632 186.8 89.2606 187.013 89.4551C187.226 89.6319 187.33 89.8708 187.33 90.1714C187.33 90.4898 187.226 90.7375 187.013 90.9142C186.8 91.0912 186.543 91.1795 186.244 91.1795H173.907Z" fill="black"/>
<path d="M209.44 106.647C209.44 106.948 209.325 107.204 209.096 107.416C208.883 107.629 208.626 107.735 208.325 107.735C207.989 107.735 207.724 107.629 207.529 107.416C207.336 107.204 207.238 106.948 207.238 106.647V90.2511C207.238 89.9327 207.345 89.6762 207.556 89.4816C207.769 89.2694 208.034 89.1632 208.352 89.1632C208.653 89.1632 208.91 89.2694 209.121 89.4816C209.334 89.6762 209.44 89.9327 209.44 90.2511V106.647Z" fill="black"/>
<path d="M244.189 90.3838C244.49 90.5429 244.658 90.7816 244.694 91.1C244.747 91.4184 244.667 91.7102 244.454 91.9755C244.295 92.2054 244.091 92.3292 243.844 92.347C243.597 92.3647 243.349 92.3116 243.102 92.1877C242.517 91.834 241.891 91.5599 241.217 91.3653C240.546 91.1531 239.838 91.0469 239.096 91.0469C238.051 91.0469 237.096 91.2326 236.23 91.6042C235.363 91.9579 234.612 92.4619 233.975 93.1163C233.338 93.7708 232.843 94.549 232.489 95.4509C232.135 96.3531 231.959 97.3525 231.959 98.449C231.959 99.6163 232.144 100.66 232.516 101.58C232.886 102.499 233.392 103.286 234.027 103.941C234.683 104.577 235.434 105.064 236.284 105.4C237.15 105.736 238.087 105.904 239.096 105.904C239.82 105.904 240.519 105.807 241.192 105.612C241.864 105.418 242.501 105.135 243.102 104.763C243.349 104.639 243.597 104.595 243.844 104.631C244.091 104.666 244.304 104.79 244.481 105.002C244.694 105.285 244.774 105.586 244.719 105.904C244.667 106.205 244.499 106.426 244.216 106.567C243.774 106.833 243.27 107.08 242.703 107.31C242.138 107.522 241.546 107.69 240.927 107.814C240.324 107.938 239.714 108 239.096 108C237.822 108 236.62 107.779 235.488 107.337C234.356 106.895 233.356 106.258 232.489 105.427C231.623 104.595 230.933 103.596 230.42 102.429C229.924 101.244 229.677 99.9169 229.677 98.449C229.677 97.0693 229.915 95.8048 230.393 94.6552C230.872 93.5055 231.534 92.5061 232.383 91.6571C233.249 90.8082 234.249 90.1449 235.381 89.6674C236.531 89.1898 237.769 88.951 239.096 88.951C240.015 88.951 240.909 89.0748 241.775 89.3225C242.66 89.5702 243.465 89.9239 244.189 90.3838Z" fill="black"/>
<path d="M270.045 108C268.736 108 267.586 107.805 266.595 107.416C265.606 107.027 264.649 106.408 263.73 105.559C263.605 105.435 263.501 105.303 263.412 105.161C263.34 105.002 263.306 104.834 263.306 104.657C263.306 104.374 263.403 104.127 263.596 103.914C263.809 103.684 264.066 103.569 264.367 103.569C264.614 103.569 264.835 103.667 265.03 103.861C265.719 104.533 266.463 105.046 267.259 105.4C268.071 105.754 268.983 105.931 269.99 105.931C270.768 105.931 271.469 105.807 272.086 105.559C272.723 105.312 273.227 104.967 273.599 104.525C273.971 104.082 274.157 103.569 274.157 102.986C274.139 102.278 273.926 101.695 273.52 101.235C273.13 100.775 272.583 100.395 271.875 100.094C271.185 99.7754 270.38 99.5101 269.46 99.2979C268.647 99.1033 267.895 98.8646 267.205 98.5817C266.533 98.2987 265.95 97.9537 265.454 97.5469C264.959 97.1224 264.569 96.6184 264.288 96.0347C264.022 95.4333 263.889 94.7347 263.889 93.9388C263.889 92.9306 264.154 92.0462 264.685 91.2857C265.216 90.5252 265.95 89.9415 266.887 89.5347C267.824 89.1103 268.904 88.898 270.124 88.898C271.203 88.898 272.22 89.0748 273.175 89.4285C274.148 89.7824 274.926 90.2687 275.509 90.8878C275.863 91.2238 276.04 91.5511 276.04 91.8695C276.04 92.1346 275.926 92.3823 275.695 92.6122C275.484 92.8246 275.234 92.9306 274.953 92.9306C274.758 92.9306 274.581 92.8598 274.422 92.7184C274.121 92.3823 273.742 92.0817 273.281 91.8164C272.821 91.5511 272.317 91.3388 271.768 91.1795C271.22 91.0204 270.673 90.9409 270.124 90.9409C269.31 90.9409 268.593 91.0647 267.974 91.3122C267.357 91.5422 266.869 91.8783 266.515 92.3204C266.18 92.7448 266.012 93.2578 266.012 93.8592C266.012 94.5313 266.207 95.0884 266.595 95.5307C266.985 95.9551 267.506 96.3088 268.16 96.5918C268.815 96.8571 269.541 97.096 270.335 97.3082C271.203 97.5204 271.998 97.7681 272.723 98.051C273.467 98.3164 274.103 98.6524 274.633 99.0592C275.164 99.466 275.572 99.9878 275.854 100.625C276.155 101.244 276.305 102.013 276.305 102.933C276.305 103.905 276.031 104.772 275.484 105.533C274.935 106.293 274.182 106.895 273.227 107.337C272.29 107.761 271.229 107.982 270.045 108Z" fill="black"/>
<path d="M141.363 12.3792C125.392 -4.40199 123.851 12.3793 121.349 6.60292C120.098 0.184754 127.276 -1.69229 133.892 1.57898C138.861 4.03562 144.49 11.0956 145.115 14.3047C145.462 16.0809 143.322 14.438 141.363 12.3792Z" fill="black"/>
</g>
<defs>
<clipPath id="clip0_16_590">
<rect width="278" height="108" fill="white"/>
</clipPath>
</defs>
</svg>
